Coordinates
version=1
nRows=21
nColumns=22
inDegrees=yes

Units are S.I. units (second, meters, Newtons, ...)
If the header above contains a line with 'inDegrees', this indicates whether rotational values are in degrees (yes) or radians (no).

endheader
time	pelvis_tilt	pelvis_list	pelvis_rotation	pelvis_tx	pelvis_ty	pelvis_tz	hip_flexion_r	hip_adduction_r	hip_rotation_r	knee_angle_r	ankle_angle_r	subtalar_angle_r	hip_flexion_l	hip_adduction_l	hip_rotation_l	knee_angle_l	ankle_angle_l	subtalar_angle_l	lumbar_extension	lumbar_bending	lumbar_rotation
      1.81000000	      3.99245745	     -2.47822659	     70.87534422	      0.87325911	      1.04923467	      0.52895303	     21.64857990	      2.61775612	      3.15197475	    -22.36170896	      6.42627581	      7.41682070	     -4.80888265	      3.83047259	     20.18922976	    -39.76130923	      2.17316879	      7.61494429	     -4.83215174	      3.03873405	     -9.26532025
      1.82000000	      4.10952011	     -2.41406853	     71.74324431	      0.87789152	      1.05093176	      0.51981446	     20.90674388	      2.62671089	      2.69916195	    -22.39389347	      6.89963995	      6.80516690	     -3.44741072	      3.67209795	     19.37062991	    -42.51980064	     -0.24494190	     10.04111828	     -4.87407623	      3.12227181	     -9.09536060
      1.83000000	      4.26996322	     -2.36997516	     72.65743220	      0.88231486	      1.05254888	      0.51088000	     20.13545240	      2.67544568	      2.11370898	    -22.32648061	      7.35896290	      6.20580970	     -1.90987420	      3.44006087	     18.51205694	    -45.40806132	     -2.60943207	     11.89265144	     -4.93126939	      3.25111232	     -8.91235863
      1.84000000	      4.47809893	     -2.29654374	     73.52094455	      0.88673676	      1.05417125	      0.50217065	     19.27474917	      2.80568953	      1.59650247	    -22.14376405	      7.81905695	      5.68221028	     -0.29744181	      3.14282773	     17.58464799	    -48.33690494	     -4.87563730	     13.33426389	     -5.05845907	      3.40084289	     -8.64705832
      1.85000000	      4.72055416	     -2.19962384	     74.33512017	      0.89113886	      1.05576608	      0.49366630	     18.35720424	      2.99716099	      1.11463755	    -21.88192725	      8.27718286	      5.23715700	      1.36916723	      2.79892621	     16.64958082	    -51.25442665	     -6.95680933	     14.40222378	     -5.23913917	      3.56680128	     -8.31755171
      1.86000000	      5.04053097	     -2.08960108	     75.09212263	      0.89557249	      1.05733708	      0.48530031	     17.38299262	      3.28872863	      0.60079203	    -21.53909685	      8.67752056	      4.93553937	      3.05124208	      2.35700002	     15.72453677	    -54.10180993	     -8.73350313	     15.01607249	     -5.46334729	      3.80192239	     -7.91100709
      1.87000000	      5.36111271	     -1.96369215	     75.76309777	      0.90005895	      1.05887042	      0.47707141	     16.38686940	      3.61662257	      0.16345510	    -21.14816708	      9.05214360	      4.68606882	      4.72444138	      1.91394549	     14.84388463	    -56.80125301	    -10.12445582	     15.38407612	     -5.70794626	      4.02263709	     -7.44779600
      1.88000000	      5.68379212	     -1.81811921	     76.34354265	      0.90459766	      1.06037659	      0.46893120	     15.36815679	      3.97202197	     -0.23028123	    -20.71889352	      9.39004117	      4.51540146	      6.34998130	      1.47938292	     14.02390969	    -59.30249674	    -11.04933317	     15.44359028	     -5.97483554	      4.23201578	     -6.93292025
      1.89000000	      5.98009120	     -1.66951139	     76.84321017	      0.90913624	      1.06181795	      0.46084180	     14.35909730	      4.32141859	     -0.58058384	    -20.27344155	      9.70597031	      4.38347049	      7.92928239	      1.08784846	     13.26730547	    -61.56579077	    -11.48346230	     15.06124289	     -6.23148296	      4.41111590	     -6.39255699
      1.90000000	      6.23427436	     -1.49073453	     77.26515258	      0.91363978	      1.06326596	      0.45276728	     13.32434205	      4.63363888	     -0.89317162	    -19.79747504	      9.97972474	      4.34919930	      9.41311871	      0.77600792	     12.58345084	    -63.55049322	    -11.50468229	     14.24067150	     -6.50629731	      4.53642940	     -5.81954187
      1.91000000	      6.46192062	     -1.29979724	     77.62408181	      0.91808218	      1.06468084	      0.44470752	     12.27881405	      4.92457350	     -1.17217323	    -19.29684572	     10.22560425	      4.39029723	     10.81610634	      0.51700282	     11.96061580	    -65.25425592	    -11.13866885	     13.18286325	     -6.78413422	      4.63627179	     -5.24697463
      1.92000000	      6.62691578	     -1.10560033	     77.93375191	      0.92241578	      1.06604082	      0.43665608	     11.24145899	      5.15086720	     -1.43369203	    -18.77869464	     10.46345268	      4.47863613	     12.14591897	      0.35421719	     11.39992571	    -66.66481910	    -10.43635307	     11.86507134	     -7.04582746	      4.67453368	     -4.68756593
      1.93000000	      6.73931777	     -0.92028463	     78.21165165	      0.92663065	      1.06734086	      0.42860955	     10.21363028	      5.32288991	     -1.69765571	    -18.22876939	     10.65527269	      4.59909925	     13.41794076	      0.26763087	     10.89485483	    -67.78393371	     -9.55015270	     10.41791111	     -7.28159249	      4.66618933	     -4.15104787
      1.94000000	      6.82131137	     -0.75761504	     78.47368380	      0.93073212	      1.06856120	      0.42055812	      9.19245898	      5.46863502	     -1.96276410	    -17.62698080	     10.80819460	      4.72968937	     14.64713183	      0.21804876	     10.43497534	    -68.62053135	     -8.56637327	      8.94659884	     -7.47862333	      4.63836664	     -3.65060445
      1.95000000	      6.85532276	     -0.61345991	     78.71953773	      0.93471508	      1.06968911	      0.41250778	      8.19618749	      5.56564635	     -2.26929969	    -17.01058279	     10.94891325	      4.84733587	     15.83141423	      0.21667956	      9.99676990	    -69.17356093	     -7.54406552	      7.45279070	     -7.64357284	      4.56872594	     -3.16686351
      1.96000000	      6.87549216	     -0.50465196	     78.96995488	      0.93859541	      1.07071351	      0.40442456	      7.19939173	      5.66316213	     -2.55654851	    -16.31639601	     11.05033729	      4.93558739	     16.98662424	      0.21542212	      9.58885809	    -69.45463255	     -6.51057452	      6.02100726	     -7.75733120	      4.50008218	     -2.74079091
      1.97000000	      6.86331874	     -0.41871705	     79.21579328	      0.94237998	      1.07162823	      0.39631964	      6.22039496	      5.73675756	     -2.86111209	    -15.59611889	     11.14095984	      4.98114927	     18.10031306	      0.22533882	      9.18260860	    -69.46236514	     -5.46910081	      4.64607801	     -7.83612382	      4.40454332	     -2.33920229
      1.98000000	      6.82432522	     -0.35271263	     79.45546607	      0.94607337	      1.07243118	      0.38817606	      5.25318266	      5.79363476	     -3.16376157	    -14.84817759	     11.22390716	      4.98531808	     19.16633451	      0.23643083	      8.77283691	    -69.20559618	     -4.42210614	      3.35187130	     -7.88411144	      4.28658016	     -1.96348074
      1.99000000	      6.76209906	     -0.29839002	     79.68263492	      0.94969022	      1.07311855	      0.37999972	      4.29760012	      5.83688495	     -3.45711412	    -14.09014531	     11.31352655	      4.96122881	     20.17482835	      0.24055303	      8.35306754	    -68.69922869	     -3.36134861	      2.16067416	     -7.91577911	      4.14705480	     -1.60767760
      2.00000000	      6.67985909	     -0.24939837	     79.89770278	      0.95323610	      1.07368619	      0.37176976	      3.35347196	      5.86740398	     -3.73718334	    -13.33849471	     11.42620478	      4.93320384	     21.11570034	      0.23175801	      7.92069706	    -67.95699478	     -2.29657732	      1.10067081	     -7.93554977	      3.98817592	     -1.26725659
      2.01000000	      6.58199470	     -0.20114040	     80.09471809	      0.95671365	      1.07412845	      0.36350778	      2.42651857	      5.88706527	     -4.00522222	    -12.61082643	     11.58088216	      4.92853321	     21.98363105	      0.20752936	      7.47455271	    -66.99480984	     -1.24920193	      0.16161984	     -7.95623163	      3.81212495	     -0.93230521
